<svg width="19" height="22" viewBox="0 0 19 22" fill="none" xmlns="http://www.w3.org/2000/svg">
<path d="M6.74311 19.6499C7.44824 20.2723 8.37449 20.6499 9.38894 20.6499C10.4034 20.6499 11.3296 20.2723 12.0348 19.6499M15.3889 6.6499C15.3889 5.0586 14.7568 3.53248 13.6316 2.40726C12.5064 1.28204 10.9802 0.649902 9.38894 0.649902C7.79764 0.649902 6.27151 1.28204 5.14629 2.40726C4.02108 3.53248 3.38893 5.0586 3.38893 6.6499C3.38893 9.74009 2.6094 11.8559 1.7386 13.2553C1.00406 14.4358 0.636793 15.026 0.65026 15.1907C0.665171 15.373 0.703795 15.4425 0.850711 15.5515C0.983394 15.6499 1.58153 15.6499 2.77779 15.6499H16.0001C17.1963 15.6499 17.7945 15.6499 17.9272 15.5515C18.0741 15.4425 18.1127 15.373 18.1276 15.1907C18.1411 15.026 17.7738 14.4358 17.0393 13.2553C16.1685 11.8559 15.3889 9.74009 15.3889 6.6499Z" stroke="#505A5F" stroke-width="1.3" stroke-linecap="round" stroke-linejoin="round"/>
</svg>
