<svg width="21" height="20" viewBox="0 0 21 20" fill="none" xmlns="http://www.w3.org/2000/svg">
<path d="M9.23672 2.74234C9.64313 2.68226 10.0624 2.65002 10.4942 2.65002C15.5992 2.65002 18.9491 7.15487 20.0745 8.93685C20.2107 9.15253 20.2788 9.26037 20.3169 9.4267C20.3455 9.55161 20.3455 9.74869 20.3169 9.8736C20.2787 10.0399 20.2101 10.1485 20.073 10.3656C19.7731 10.8402 19.3159 11.5071 18.7103 12.2305M5.2181 4.36506C3.05602 5.83173 1.58822 7.8694 0.91488 8.93531C0.778059 9.1519 0.709649 9.26019 0.671514 9.42651C0.642871 9.55142 0.64286 9.74847 0.671488 9.87338C0.709604 10.0397 0.777705 10.1475 0.913909 10.3632C2.03932 12.1452 5.38919 16.65 10.4942 16.65C12.5526 16.65 14.3257 15.9176 15.7826 14.9266M1.49419 0.650024L19.4942 18.65M8.37287 7.5287C7.82998 8.0716 7.49419 8.8216 7.49419 9.65002C7.49419 11.3069 8.83734 12.65 10.4942 12.65C11.3226 12.65 12.0726 12.3142 12.6155 11.7713" stroke="#505A5F" stroke-width="1.3" stroke-linecap="round" stroke-linejoin="round"/>
</svg>
