<svg width="21" height="16" viewBox="0 0 21 16" fill="none" xmlns="http://www.w3.org/2000/svg">
<path d="M0.913897 8.3632C0.77771 8.14756 0.709617 8.03974 0.671498 7.87344C0.642866 7.74852 0.642866 7.55152 0.671498 7.42661C0.709617 7.26031 0.77771 7.15249 0.913897 6.93685C2.0393 5.15487 5.38917 0.650024 10.4942 0.650024C15.5992 0.650024 18.9491 5.15486 20.0745 6.93685C20.2106 7.15249 20.2787 7.26031 20.3169 7.42661C20.3455 7.55152 20.3455 7.74852 20.3169 7.87344C20.2787 8.03974 20.2106 8.14756 20.0745 8.3632C18.9491 10.1452 15.5992 14.65 10.4942 14.65C5.38917 14.65 2.0393 10.1452 0.913897 8.3632Z" stroke="#505A5F" stroke-width="1.3" stroke-linecap="round" stroke-linejoin="round"/>
<path d="M10.4942 10.65C12.151 10.65 13.4942 9.30688 13.4942 7.65002C13.4942 5.99317 12.151 4.65002 10.4942 4.65002C8.83732 4.65002 7.49418 5.99317 7.49418 7.65002C7.49418 9.30688 8.83732 10.65 10.4942 10.65Z" stroke="#505A5F" stroke-width="1.3" stroke-linecap="round" stroke-linejoin="round"/>
</svg>
