<svg width="20" height="20" viewBox="0 0 20 20" fill="none" xmlns="http://www.w3.org/2000/svg">
<path d="M6.65002 0.649902V18.6499M5.45002 0.649902H13.85C15.5302 0.649902 16.3703 0.649902 17.012 0.976883C17.5765 1.2645 18.0354 1.72344 18.323 2.28793C18.65 2.92967 18.65 3.76974 18.65 5.4499V13.8499C18.65 15.5301 18.65 16.3701 18.323 17.0119C18.0354 17.5764 17.5765 18.0353 17.012 18.3229C16.3703 18.6499 15.5302 18.6499 13.85 18.6499H5.45002C3.76987 18.6499 2.92979 18.6499 2.28805 18.3229C1.72357 18.0353 1.26462 17.5764 0.977005 17.0119C0.650024 16.3701 0.650024 15.5301 0.650024 13.8499V5.4499C0.650024 3.76974 0.650024 2.92967 0.977005 2.28793C1.26462 1.72344 1.72357 1.2645 2.28805 0.976883C2.92979 0.649902 3.76987 0.649902 5.45002 0.649902Z" stroke="#505A5F" stroke-width="1.3" stroke-linecap="round" stroke-linejoin="round"/>
</svg>
