<svg width="22" height="22" viewBox="0 0 22 22" fill="none" xmlns="http://www.w3.org/2000/svg">
<path d="M1.33677 14.295L3.24497 13.1934C3.34833 13.1338 3.46962 13.1131 3.58693 13.135L7.34143 13.8377C7.64998 13.8954 7.9348 13.6579 7.93341 13.344L7.91879 10.0544C7.91839 9.96498 7.94196 9.87713 7.98704 9.79995L9.88176 6.55612C9.98037 6.38729 9.97154 6.17648 9.85914 6.0165L6.66895 1.47559M17.6502 3.50895C12.1502 6.14994 15.1501 9.64994 16.1502 10.1499C18.0273 11.0883 20.6377 11.1499 20.6377 11.1499C20.6458 10.9843 20.65 10.8176 20.65 10.6499C20.65 5.12705 16.1729 0.649902 10.65 0.649902C5.12718 0.649902 0.650024 5.12705 0.650024 10.6499C0.650024 16.1728 5.12718 20.6499 10.65 20.6499C10.8177 20.6499 10.9844 20.6458 11.15 20.6376M15.4078 20.5897L12.241 12.2409L20.5898 15.4077L16.8877 16.8875L15.4078 20.5897Z" stroke="#505A5F" stroke-width="1.3" stroke-linecap="round" stroke-linejoin="round"/>
</svg>
