<svg width="21" height="22" viewBox="0 0 21 22" fill="none" xmlns="http://www.w3.org/2000/svg">
<path d="M16.6499 9.1499V5.4499C16.6499 3.76974 16.6499 2.92967 16.3229 2.28793C16.0353 1.72344 15.5764 1.2645 15.0119 0.976883C14.3701 0.649902 13.5301 0.649902 11.8499 0.649902H5.4499C3.76974 0.649902 2.92967 0.649902 2.28793 0.976883C1.72344 1.2645 1.2645 1.72344 0.976883 2.28793C0.649902 2.92967 0.649902 3.76974 0.649902 5.4499V15.8499C0.649902 17.5301 0.649902 18.3701 0.976883 19.0119C1.2645 19.5764 1.72344 20.0353 2.28793 20.3229C2.92967 20.6499 3.76974 20.6499 5.4499 20.6499H8.6499M10.6499 9.6499H4.6499M6.6499 13.6499H4.6499M12.6499 5.6499H4.6499M14.639 13.3229C12.0461 13.3229 10.3446 15.5753 9.77302 16.4663C9.70385 16.5742 9.66926 16.6281 9.6499 16.7112C9.63536 16.7737 9.63536 16.8722 9.6499 16.9346C9.66926 17.0178 9.70385 17.0717 9.77302 17.1795C10.3446 18.0705 12.0461 20.3229 14.639 20.3229C17.2319 20.3229 18.9334 18.0705 19.505 17.1795C19.5741 17.0717 19.6087 17.0178 19.6281 16.9346C19.6426 16.8722 19.6426 16.7737 19.6281 16.7112C19.6087 16.6281 19.5741 16.5742 19.505 16.4663C18.9334 15.5753 17.2319 13.3229 14.639 13.3229ZM16.1627 16.8229C16.1627 17.6513 15.4805 18.3229 14.639 18.3229C13.7975 18.3229 13.1152 17.6513 13.1152 16.8229C13.1152 15.9945 13.7975 15.3229 14.639 15.3229C15.4805 15.3229 16.1627 15.9945 16.1627 16.8229Z" stroke="#505A5F" stroke-width="1.3" stroke-linecap="round" stroke-linejoin="round"/>
</svg>
