<svg width="20" height="22" viewBox="0 0 20 22" fill="none" xmlns="http://www.w3.org/2000/svg">
<path d="M18.65 8.6499H0.650024M13.65 0.649902V4.6499M5.65002 0.649902V4.6499M5.45002 20.6499H13.85C15.5302 20.6499 16.3703 20.6499 17.012 20.3229C17.5765 20.0353 18.0354 19.5764 18.323 19.0119C18.65 18.3701 18.65 17.5301 18.65 15.8499V7.4499C18.65 5.76974 18.65 4.92967 18.323 4.28793C18.0354 3.72344 17.5765 3.2645 17.012 2.97688C16.3703 2.6499 15.5302 2.6499 13.85 2.6499H5.45002C3.76987 2.6499 2.92979 2.6499 2.28805 2.97688C1.72357 3.2645 1.26462 3.72344 0.977005 4.28793C0.650024 4.92967 0.650024 5.76974 0.650024 7.4499V15.8499C0.650024 17.5301 0.650024 18.3701 0.977005 19.0119C1.26462 19.5764 1.72357 20.0353 2.28805 20.3229C2.92979 20.6499 3.76987 20.6499 5.45002 20.6499Z" stroke="#505A5F" stroke-width="1.3" stroke-linecap="round" stroke-linejoin="round"/>
</svg>
