<svg width="18" height="20" viewBox="0 0 18 20" fill="none" xmlns="http://www.w3.org/2000/svg">
<path d="M13.6499 7.6499V5.6499C13.6499 2.88848 11.4113 0.649902 8.6499 0.649902C5.88848 0.649902 3.6499 2.88848 3.6499 5.6499V7.6499M8.6499 12.1499V14.1499M5.4499 18.6499H11.8499C13.5301 18.6499 14.3701 18.6499 15.0119 18.3229C15.5764 18.0353 16.0353 17.5764 16.3229 17.0119C16.6499 16.3701 16.6499 15.5301 16.6499 13.8499V12.4499C16.6499 10.7697 16.6499 9.92967 16.3229 9.28793C16.0353 8.72344 15.5764 8.2645 15.0119 7.97688C14.3701 7.6499 13.5301 7.6499 11.8499 7.6499H5.4499C3.76974 7.6499 2.92967 7.6499 2.28793 7.97688C1.72344 8.2645 1.2645 8.72344 0.976883 9.28793C0.649902 9.92967 0.649902 10.7697 0.649902 12.4499V13.8499C0.649902 15.5301 0.649902 16.3701 0.976883 17.0119C1.2645 17.5764 1.72344 18.0353 2.28793 18.3229C2.92967 18.6499 3.76974 18.6499 5.4499 18.6499Z" stroke="#505A5F" stroke-width="1.3" stroke-linecap="round" stroke-linejoin="round"/>
</svg>
