<svg width="21" height="22" viewBox="0 0 21 22" fill="none" xmlns="http://www.w3.org/2000/svg">
<path d="M18.1501 5.78369L9.65012 10.5059M9.65012 10.5059L1.15011 5.78369M9.65012 10.5059L9.65015 20.0059M18.6501 10.5059V6.44739C18.6501 6.10475 18.6501 5.93342 18.5997 5.78063C18.555 5.64545 18.482 5.52137 18.3855 5.41668C18.2765 5.29834 18.1267 5.21514 17.8272 5.04874L10.4272 0.937626C10.1436 0.780068 10.0018 0.701289 9.8516 0.670404C9.71869 0.643069 9.58161 0.643069 9.4487 0.670404C9.29853 0.701289 9.15672 0.780071 8.87312 0.937627L1.47312 5.04874C1.1736 5.21514 1.02383 5.29834 0.91478 5.41668C0.818304 5.52137 0.745294 5.64545 0.700631 5.78063C0.650146 5.93343 0.650146 6.10475 0.650146 6.44739V14.5645C0.650146 14.9071 0.650146 15.0785 0.700631 15.2313C0.745294 15.3664 0.818304 15.4905 0.91478 15.5952C1.02383 15.7135 1.1736 15.7968 1.47312 15.9632L8.87312 20.0743C9.15672 20.2318 9.29853 20.3106 9.4487 20.3415C9.58161 20.3688 9.71869 20.3688 9.8516 20.3415C10.0018 20.3106 10.1436 20.2318 10.4272 20.0743L10.6501 19.9504M5.15015 3.00594L14.1501 8.00594M19.6501 20.0059L18.6501 19.0059M19.6501 16.5059C19.6501 18.1628 18.307 19.5059 16.6501 19.5059C14.9933 19.5059 13.6501 18.1628 13.6501 16.5059C13.6501 14.8491 14.9933 13.5059 16.6501 13.5059C18.307 13.5059 19.6501 14.8491 19.6501 16.5059Z" stroke="#505A5F" stroke-width="1.3" stroke-linecap="round" stroke-linejoin="round"/>
</svg>
