<svg width="22" height="22" viewBox="0 0 22 22" fill="none" xmlns="http://www.w3.org/2000/svg">
<path d="M10.65 13.6499C12.3069 13.6499 13.65 12.3068 13.65 10.6499C13.65 8.99305 12.3069 7.6499 10.65 7.6499C8.99317 7.6499 7.65002 8.99305 7.65002 10.6499C7.65002 12.3068 8.99317 13.6499 10.65 13.6499Z" stroke="#505A5F" stroke-width="1.3" stroke-linecap="round" stroke-linejoin="round"/>
<path d="M17.3773 13.3772C17.2563 13.6514 17.2202 13.9555 17.2737 14.2504C17.3271 14.5453 17.4677 14.8175 17.6773 15.0317L17.7318 15.0863C17.9009 15.2551 18.035 15.4557 18.1265 15.6764C18.218 15.8971 18.2651 16.1337 18.2651 16.3726C18.2651 16.6116 18.218 16.8482 18.1265 17.0689C18.035 17.2896 17.9009 17.4901 17.7318 17.659C17.563 17.828 17.3625 17.9621 17.1417 18.0536C16.921 18.1451 16.6844 18.1922 16.4455 18.1922C16.2065 18.1922 15.9699 18.1451 15.7492 18.0536C15.5285 17.9621 15.328 17.828 15.1591 17.659L15.1046 17.6044C14.8903 17.3949 14.6182 17.2543 14.3233 17.2008C14.0284 17.1473 13.7242 17.1834 13.45 17.3044C13.1811 17.4197 12.9518 17.611 12.7903 17.8549C12.6288 18.0988 12.5421 18.3846 12.5409 18.6772V18.8317C12.5409 19.3139 12.3494 19.7764 12.0084 20.1174C11.6674 20.4583 11.205 20.6499 10.7228 20.6499C10.2405 20.6499 9.77808 20.4583 9.4371 20.1174C9.09613 19.7764 8.90457 19.3139 8.90457 18.8317V18.7499C8.89753 18.449 8.80013 18.1572 8.62503 17.9124C8.44994 17.6675 8.20524 17.4811 7.92275 17.3772C7.64856 17.2562 7.34439 17.2201 7.04949 17.2735C6.75458 17.327 6.48246 17.4676 6.26821 17.6772L6.21366 17.7317C6.0448 17.9008 5.84428 18.0349 5.62355 18.1264C5.40283 18.2179 5.16623 18.265 4.9273 18.265C4.68836 18.265 4.45177 18.2179 4.23104 18.1264C4.01032 18.0349 3.80979 17.9008 3.64093 17.7317C3.47189 17.5629 3.33778 17.3623 3.24628 17.1416C3.15478 16.9209 3.10769 16.6843 3.10769 16.4454C3.10769 16.2064 3.15478 15.9698 3.24628 15.7491C3.33778 15.5284 3.47189 15.3279 3.64093 15.159L3.69548 15.1044C3.90506 14.8902 4.04565 14.6181 4.09912 14.3232C4.15259 14.0283 4.11649 13.7241 3.99548 13.4499C3.88024 13.181 3.68889 12.9517 3.44499 12.7902C3.20109 12.6287 2.91529 12.542 2.62275 12.5408H2.46821C1.98599 12.5408 1.52353 12.3493 1.18256 12.0083C0.841582 11.6673 0.650024 11.2048 0.650024 10.7226C0.650024 10.2404 0.841582 9.77796 1.18256 9.43698C1.52353 9.09601 1.98599 8.90445 2.46821 8.90445H2.55002C2.85093 8.89741 3.14276 8.80001 3.38757 8.62491C3.63238 8.44981 3.81886 8.20512 3.92275 7.92263C4.04377 7.64843 4.07986 7.34427 4.02639 7.04937C3.97292 6.75446 3.83233 6.48234 3.62275 6.26808L3.56821 6.21354C3.39916 6.04468 3.26505 5.84415 3.17355 5.62343C3.08205 5.40271 3.03496 5.16611 3.03496 4.92718C3.03496 4.68824 3.08205 4.45164 3.17355 4.23092C3.26505 4.0102 3.39916 3.80967 3.56821 3.64081C3.73707 3.47176 3.93759 3.33766 4.15831 3.24616C4.37904 3.15466 4.61563 3.10756 4.85457 3.10756C5.09351 3.10756 5.3301 3.15466 5.55083 3.24616C5.77155 3.33766 5.97207 3.47176 6.14093 3.64081L6.19548 3.69536C6.40973 3.90494 6.68186 4.04553 6.97676 4.099C7.27167 4.15247 7.57583 4.11637 7.85002 3.99536H7.92275C8.19163 3.88012 8.42095 3.68877 8.58247 3.44487C8.744 3.20097 8.83068 2.91516 8.83184 2.62263V2.46808C8.83184 1.98587 9.0234 1.52341 9.36438 1.18244C9.70535 0.84146 10.1678 0.649902 10.65 0.649902C11.1322 0.649902 11.5947 0.84146 11.9357 1.18244C12.2766 1.52341 12.4682 1.98587 12.4682 2.46808V2.5499C12.4694 2.84244 12.5561 3.12824 12.7176 3.37214C12.8791 3.61604 13.1084 3.80739 13.3773 3.92263C13.6515 4.04364 13.9557 4.07974 14.2506 4.02627C14.5455 3.9728 14.8176 3.83221 15.0318 3.62263L15.0864 3.56808C15.2552 3.39904 15.4558 3.26493 15.6765 3.17343C15.8972 3.08193 16.1338 3.03484 16.3728 3.03484C16.6117 3.03484 16.8483 3.08193 17.069 3.17343C17.2897 3.26493 17.4903 3.39904 17.6591 3.56808C17.8282 3.73694 17.9623 3.93747 18.0538 4.15819C18.1453 4.37892 18.1924 4.61551 18.1924 4.85445C18.1924 5.09339 18.1453 5.32998 18.0538 5.5507C17.9623 5.77143 17.8282 5.97195 17.6591 6.14081L17.6046 6.19536C17.395 6.40961 17.2544 6.68174 17.2009 6.97664C17.1475 7.27154 17.1836 7.57571 17.3046 7.8499V7.92263C17.4198 8.19151 17.6112 8.42083 17.8551 8.58235C18.099 8.74387 18.3848 8.83055 18.6773 8.83172H18.8318C19.3141 8.83172 19.7765 9.02328 20.1175 9.36425C20.4585 9.70523 20.65 10.1677 20.65 10.6499C20.65 11.1321 20.4585 11.5946 20.1175 11.9356C19.7765 12.2765 19.3141 12.4681 18.8318 12.4681H18.75C18.4575 12.4693 18.1717 12.5559 17.9278 12.7175C17.6839 12.879 17.4925 13.1083 17.3773 13.3772Z" stroke="#505A5F" stroke-width="1.3" stroke-linecap="round" stroke-linejoin="round"/>
</svg>
