<svg width="18" height="22" viewBox="0 0 18 22" fill="none" xmlns="http://www.w3.org/2000/svg">
<path d="M8.65015 13.0819V7.0819M5.65015 10.0819H11.6501M16.6501 10.5819C16.6501 15.4903 11.2962 19.0603 9.34814 20.1968C9.12675 20.3259 9.01605 20.3905 8.85983 20.424C8.73859 20.45 8.5617 20.45 8.44047 20.424C8.28424 20.3905 8.17355 20.3259 7.95216 20.1968C6.00411 19.0603 0.650146 15.4903 0.650146 10.5819V5.7995C0.650146 4.99999 0.650146 4.60024 0.780907 4.25661C0.896421 3.95304 1.08413 3.68218 1.3278 3.46743C1.60364 3.22434 1.97794 3.08398 2.72655 2.80325L8.08835 0.792576C8.29624 0.714615 8.40019 0.675635 8.50713 0.660182C8.60198 0.646476 8.69831 0.646476 8.79316 0.660182C8.9001 0.675635 9.00405 0.714615 9.21194 0.792576L14.5737 2.80325C15.3223 3.08398 15.6967 3.22434 15.9725 3.46743C16.2162 3.68218 16.4039 3.95304 16.5194 4.25661C16.6501 4.60024 16.6501 4.99999 16.6501 5.7995V10.5819Z" stroke="#505A5F" stroke-width="1.3" stroke-linecap="round" stroke-linejoin="round"/>
</svg>
