<svg width="22" height="20" viewBox="0 0 22 20" fill="none" xmlns="http://www.w3.org/2000/svg">
<path d="M14.6499 15.6499L16.6499 17.6499L20.6499 13.6499M10.6499 12.6499H6.6499C4.78614 12.6499 3.85425 12.6499 3.11917 12.9544C2.13906 13.3604 1.36036 14.1391 0.954384 15.1192C0.649902 15.8543 0.649902 16.7861 0.649902 18.6499M14.1499 0.940661C15.6158 1.53405 16.6499 2.97121 16.6499 4.6499C16.6499 6.32859 15.6158 7.76576 14.1499 8.35914M12.1499 4.6499C12.1499 6.85904 10.359 8.6499 8.1499 8.6499C5.94076 8.6499 4.1499 6.85904 4.1499 4.6499C4.1499 2.44076 5.94076 0.649902 8.1499 0.649902C10.359 0.649902 12.1499 2.44076 12.1499 4.6499Z" stroke="#505A5F" stroke-width="1.3" stroke-linecap="round" stroke-linejoin="round"/>
</svg>
