<svg width="22" height="20" viewBox="0 0 22 20" fill="none" xmlns="http://www.w3.org/2000/svg">
<path d="M9.6499 12.65H6.6499C4.78614 12.65 3.85425 12.65 3.11917 12.9545C2.13906 13.3605 1.36036 14.1392 0.954384 15.1193C0.649902 15.8544 0.649902 16.7863 0.649902 18.65M14.1499 0.940783C15.6158 1.53417 16.6499 2.97134 16.6499 4.65002M10.6498 19.15L12.6749 18.745C12.8514 18.7097 12.9397 18.6921 13.022 18.6598C13.0951 18.6311 13.1646 18.5939 13.2289 18.549C13.3015 18.4985 13.3651 18.4348 13.4925 18.3075L20.1499 11.6501C20.7023 11.0978 20.7022 10.2023 20.1499 9.64999C19.5976 9.09772 18.7022 9.09773 18.1499 9.65002L11.4924 16.3075C11.3651 16.4348 11.3015 16.4985 11.2509 16.571C11.206 16.6354 11.1688 16.7048 11.1401 16.7779C11.1079 16.8602 11.0902 16.9485 11.0549 17.125L10.6498 19.15ZM12.1499 4.65002C12.1499 6.85916 10.359 8.65002 8.1499 8.65002C5.94076 8.65002 4.1499 6.85916 4.1499 4.65002C4.1499 2.44089 5.94076 0.650024 8.1499 0.650024C10.359 0.650024 12.1499 2.44089 12.1499 4.65002Z" stroke="#505A5F" stroke-width="1.3" stroke-linecap="round" stroke-linejoin="round"/>
</svg>
